<svg width="34" height="34" viewBox="0 0 34 34" fill="none" xmlns="http://www.w3.org/2000/svg">
<path d="M17 18.4167V11.3333M17 22.6667H17.0142M29.75 17C29.75 18.6744 29.4202 20.3323 28.7795 21.8792C28.1387 23.4261 27.1996 24.8317 26.0156 26.0156C24.8317 27.1996 23.4261 28.1387 21.8792 28.7795C20.3323 29.4202 18.6744 29.75 17 29.75C15.3256 29.75 13.6677 29.4202 12.1208 28.7795C10.5739 28.1387 9.16834 27.1996 7.98439 26.0156C6.80044 24.8317 5.86128 23.4261 5.22054 21.8792C4.57979 20.3323 4.25 18.6744 4.25 17C4.25 13.6185 5.5933 10.3755 7.98439 7.98439C10.3755 5.5933 13.6185 4.25 17 4.25C20.3815 4.25 23.6245 5.5933 26.0156 7.98439C28.4067 10.3755 29.75 13.6185 29.75 17Z" stroke="white" stroke-width="2" stroke-linecap="round" stroke-linejoin="round"/>
</svg>
