<svg
                                    className="w-6 h-6 text-gray-700"
                                    xmlns="http://www.w3.org/2000/svg"
                                    fill="currentColor"
                                    viewBox="0 0 24 24"
                                >
                                    <path
                                        d="M6 2a1 1 0 0 1 1 1v1h10V3a1 1 0 1 1 2 0v1h1a2 2 0 0 1 2 2v14a2
        2 0 0 1-2 2H5a2 2 0 0 1-2-2V6a2 2 0 0 1 2-2h1V3a1 1 0 0 1 1-1zM4 8v12h16V8H4z"
                                    />
                                </svg>